<svg width="34" height="20" viewBox="0 0 34 20" fill="none" xmlns="http://www.w3.org/2000/svg">
<path d="M24.3448 8.7661C24.1343 8.97519 23.8665 9.11716 23.5754 9.17408C23.2842 9.23099 22.9827 9.20029 22.709 9.08585C22.4353 8.97141 22.2017 8.77838 22.0377 8.53116C21.8737 8.28394 21.7866 7.99364 21.7876 7.69697C21.7886 7.4003 21.8775 7.11058 22.0432 6.86446C22.2088 6.61833 22.4437 6.42685 22.7182 6.31422C22.9927 6.2016 23.2943 6.1729 23.5851 6.23174C23.8759 6.29058 24.1427 6.43432 24.3518 6.6448C24.6322 6.92703 24.7889 7.30908 24.7876 7.7069C24.7863 8.10473 24.627 8.48573 24.3448 8.7661ZM19.0737 19.5595C14.2955 19.5384 9.55728 16.7817 4.93486 11.3482C4.02052 12.5372 3.10668 13.8385 2.19337 15.2521C2.04937 15.4747 1.82283 15.6311 1.56358 15.6867C1.30432 15.7424 1.03357 15.6928 0.810864 15.5489C0.749883 15.51 0.693412 15.4645 0.642491 15.4131C0.48228 15.2512 0.382132 15.0395 0.358612 14.8129C0.335093 14.5864 0.389612 14.3586 0.513151 14.1673C1.55086 12.5597 2.5943 11.0891 3.64347 9.75555C2.60433 8.41508 1.57154 6.93851 0.545089 5.32584C0.404332 5.10211 0.357884 4.83174 0.4159 4.57386C0.473917 4.31597 0.631676 4.09155 0.85469 3.94965C1.0777 3.80775 1.34783 3.75992 1.60601 3.81662C1.86418 3.87331 2.08941 4.02992 2.23245 4.25221C3.1358 5.67001 4.04011 6.97645 4.94538 8.17151C9.60369 2.77048 14.3627 0.0497213 19.1401 0.061126C26.8856 0.0752907 31.9095 7.31772 32.8371 8.76948C33.044 9.094 33.1533 9.4711 33.152 9.85594C33.1508 10.2408 33.039 10.6172 32.83 10.9403C31.8927 12.3859 26.8218 19.5958 19.0737 19.5595ZM18.452 17.5342C16.8083 15.29 15.9269 12.5781 15.937 9.79628C15.9472 7.01448 16.8484 4.30913 18.5085 2.07695C14.4489 2.30923 10.3329 4.8898 6.21025 9.76405C10.2988 14.669 14.3976 17.2768 18.4546 17.5369L18.452 17.5342ZM31.1515 9.85197C30.0221 8.12134 28.6431 6.56708 27.0594 5.23954C25.099 3.62084 23.0702 2.61267 20.9961 2.2328C19.0419 4.27108 17.9463 6.98285 17.9363 9.8066C17.9263 12.6304 19.0026 15.3498 20.9424 17.4019C23.0181 17.0349 25.056 16.0446 27.0254 14.4354C28.6176 13.1177 30.0078 11.5734 31.1515 9.85197Z" fill="#FF7A00"/>
</svg>
